<svg xmlns="http://www.w3.org/2000/svg" width="185.158" height="27.924" viewBox="0 0 185.158 27.924">
  <g id="Group_657" data-name="Group 657" transform="translate(-206.508 -72.337)">
    <g id="Group_649" data-name="Group 649" transform="translate(206.508 72.337)">
      <g id="Group_647" data-name="Group 647" transform="translate(0 13.457)">
        <path id="Path_219" data-name="Path 219" d="M20.6,239.328H23.06v11.749h7.353v2.238H20.6Z" transform="translate(-20.602 -239.088)" fill="#030504"/>
        <path id="Path_220" data-name="Path 220" d="M47.846,246.025v-.04a7.314,7.314,0,0,1,14.626-.04v.04a7.314,7.314,0,0,1-14.626.04Zm12.048,0v-.04a4.775,4.775,0,0,0-4.755-4.955,4.708,4.708,0,0,0-4.715,4.915v.04a4.775,4.775,0,0,0,4.755,4.956A4.709,4.709,0,0,0,59.894,246.025Z" transform="translate(-36.496 -238.752)" fill="#030504"/>
        <path id="Path_221" data-name="Path 221" d="M91.063,239.328h2.278L100.834,249v-9.671h2.418v13.986h-2.058l-7.712-9.95v9.95H91.063Z" transform="translate(-61.707 -239.088)" fill="#030504"/>
        <path id="Path_222" data-name="Path 222" d="M128.429,246.025v-.04a7.126,7.126,0,0,1,7.213-7.233,7.552,7.552,0,0,1,5.375,1.9l-1.558,1.858a5.557,5.557,0,0,0-3.917-1.478,4.713,4.713,0,0,0-4.535,4.915v.04a4.671,4.671,0,0,0,4.755,5,5.709,5.709,0,0,0,3.377-1.059v-2.6h-3.577v-2.158h5.954v5.875a8.919,8.919,0,0,1-5.834,2.178A6.94,6.94,0,0,1,128.429,246.025Z" transform="translate(-83.506 -238.752)" fill="#030504"/>
        <path id="Path_223" data-name="Path 223" d="M183.83,239.328H190.1a5.048,5.048,0,0,1,3.656,1.239,3.163,3.163,0,0,1,.939,2.318v.04a3.33,3.33,0,0,1-2,3.117c1.639.56,2.778,1.5,2.778,3.4v.04c0,2.5-2.058,3.836-5.175,3.836H183.83Zm8.411,3.956c0-1.1-.879-1.779-2.457-1.779h-3.537v3.716H189.6c1.579,0,2.637-.619,2.637-1.9Zm-2.1,4.016h-3.9v3.836h4.076c1.659,0,2.7-.659,2.7-1.918v-.04C193.021,248,192.082,247.3,190.143,247.3Z" transform="translate(-115.826 -239.088)" fill="#030504"/>
        <path id="Path_224" data-name="Path 224" d="M219.419,239.328h10.37v2.2h-7.912v3.637h7.013v2.218h-7.013v3.736h8.012v2.2h-10.47Z" transform="translate(-136.588 -239.088)" fill="#030504"/>
        <path id="Path_225" data-name="Path 225" d="M255.744,239.088h2.278l6.154,14.086h-2.6L260.16,249.8h-6.614l-1.438,3.377H249.59Zm3.517,8.532-2.418-5.594-2.4,5.594Z" transform="translate(-154.189 -238.948)" fill="#030504"/>
        <path id="Path_226" data-name="Path 226" d="M287.819,246.025v-.04a7.073,7.073,0,0,1,7.193-7.233,7.3,7.3,0,0,1,5.494,2.178l-1.578,1.818a5.59,5.59,0,0,0-3.936-1.718,4.686,4.686,0,0,0-4.6,4.915v.04a4.712,4.712,0,0,0,4.615,4.956,5.466,5.466,0,0,0,4.016-1.8l1.578,1.6a7.216,7.216,0,0,1-5.674,2.478A7.022,7.022,0,0,1,287.819,246.025Z" transform="translate(-176.491 -238.752)" fill="#030504"/>
        <path id="Path_227" data-name="Path 227" d="M325.712,239.328h2.458v5.814h6.674v-5.814H337.3v13.986h-2.457V247.42H328.17v5.894h-2.458Z" transform="translate(-198.597 -239.088)" fill="#030504"/>
      </g>
      <g id="Group_648" data-name="Group 648" transform="translate(0.028)">
        <path id="Path_228" data-name="Path 228" d="M20.67,209.889v-.019a3.331,3.331,0,0,1,3.343-3.419,3.441,3.441,0,0,1,2.578,1.048l-.51.548A2.875,2.875,0,0,0,24,207.141a2.592,2.592,0,0,0-2.559,2.71v.019A2.609,2.609,0,0,0,24,212.6a2.869,2.869,0,0,0,2.135-.954l.491.482a3.442,3.442,0,0,1-2.644,1.162A3.3,3.3,0,0,1,20.67,209.889Z" transform="translate(-20.67 -206.451)" fill="#030504"/>
        <path id="Path_229" data-name="Path 229" d="M42.57,206.61h.7l3.013,6.658h-.8l-.775-1.747h-3.6l-.784,1.747h-.765Zm1.841,4.24-1.5-3.371L41.4,210.85Z" transform="translate(-31.688 -206.544)" fill="#030504"/>
        <path id="Path_230" data-name="Path 230" d="M61.548,206.723h.746v5.922h3.721v.69H61.548Z" transform="translate(-44.517 -206.61)" fill="#030504"/>
        <path id="Path_231" data-name="Path 231" d="M78.371,206.723h.746v6.611h-.746Z" transform="translate(-54.332 -206.61)" fill="#030504"/>
        <path id="Path_232" data-name="Path 232" d="M87.531,206.723h4.75v.689h-4v2.361h3.579v.68H88.277v2.881h-.746Z" transform="translate(-59.675 -206.61)" fill="#030504"/>
        <path id="Path_233" data-name="Path 233" d="M104.081,209.889v-.019a3.372,3.372,0,1,1,6.743-.019v.019a3.372,3.372,0,1,1-6.743.019Zm5.969,0v-.019a2.628,2.628,0,0,0-2.607-2.73,2.6,2.6,0,0,0-2.588,2.71v.019a2.628,2.628,0,0,0,2.607,2.729A2.6,2.6,0,0,0,110.05,209.889Z" transform="translate(-69.33 -206.451)" fill="#030504"/>
        <path id="Path_234" data-name="Path 234" d="M126.778,206.723h2.843a2.607,2.607,0,0,1,1.879.661,1.826,1.826,0,0,1,.51,1.3v.019a1.935,1.935,0,0,1-1.795,1.926l2.031,2.7h-.916l-1.917-2.569h-1.889v2.569h-.746Zm2.777,3.372c.992,0,1.7-.51,1.7-1.36v-.019c0-.812-.624-1.3-1.691-1.3h-2.039v2.682Z" transform="translate(-82.571 -206.61)" fill="#030504"/>
        <path id="Path_235" data-name="Path 235" d="M145.891,206.723h.7l4.165,5.3v-5.3h.727v6.611h-.595l-4.269-5.421v5.421h-.727Z" transform="translate(-93.721 -206.61)" fill="#030504"/>
        <path id="Path_236" data-name="Path 236" d="M166.658,206.723h.746v6.611h-.746Z" transform="translate(-105.836 -206.61)" fill="#030504"/>
        <path id="Path_237" data-name="Path 237" d="M177.471,206.61h.7l3.013,6.658h-.8l-.774-1.747h-3.6l-.784,1.747h-.765Zm1.841,4.24-1.5-3.371L176.3,210.85Z" transform="translate(-110.387 -206.544)" fill="#030504"/>
        <path id="Path_238" data-name="Path 238" d="M204.908,212.238l.462-.547a3.149,3.149,0,0,0,2.267.935c.888,0,1.474-.472,1.474-1.124v-.019c0-.614-.331-.963-1.719-1.256-1.52-.33-2.22-.822-2.22-1.908V208.3a1.953,1.953,0,0,1,2.173-1.8,3.449,3.449,0,0,1,2.324.813l-.435.576a2.9,2.9,0,0,0-1.908-.718c-.859,0-1.407.472-1.407,1.067v.019c0,.623.34.973,1.794,1.284,1.474.321,2.153.859,2.153,1.87v.019c0,1.133-.944,1.87-2.257,1.87A3.868,3.868,0,0,1,204.908,212.238Z" transform="translate(-128.151 -206.477)" fill="#030504"/>
        <path id="Path_239" data-name="Path 239" d="M223.846,207.413h-2.229v-.689h5.2v.689h-2.229v5.922h-.746Z" transform="translate(-137.899 -206.61)" fill="#030504"/>
        <path id="Path_240" data-name="Path 240" d="M239.685,206.61h.7l3.013,6.658h-.8l-.774-1.747h-3.6l-.784,1.747h-.765Zm1.842,4.24-1.5-3.371-1.511,3.371Z" transform="translate(-146.681 -206.544)" fill="#030504"/>
        <path id="Path_241" data-name="Path 241" d="M257.6,207.413h-2.229v-.689h5.2v.689h-2.23v5.922H257.6Z" transform="translate(-157.593 -206.61)" fill="#030504"/>
        <path id="Path_242" data-name="Path 242" d="M273.856,206.723h4.778v.68H274.6v2.257h3.608v.679H274.6v2.314h4.08v.68h-4.826Z" transform="translate(-168.373 -206.61)" fill="#030504"/>
        <path id="Path_243" data-name="Path 243" d="M301.017,210.567v-3.844h.746v3.8c0,1.426.755,2.229,2.021,2.229,1.218,0,1.993-.737,1.993-2.181v-3.844h.746v3.788a2.757,2.757,0,1,1-5.506.057Z" transform="translate(-184.218 -206.61)" fill="#030504"/>
        <path id="Path_244" data-name="Path 244" d="M321.2,206.723h.7l4.165,5.3v-5.3h.727v6.611h-.6l-4.269-5.421v5.421H321.2Z" transform="translate(-195.99 -206.61)" fill="#030504"/>
        <path id="Path_245" data-name="Path 245" d="M341.963,206.723h.746v6.611h-.746Z" transform="translate(-208.106 -206.61)" fill="#030504"/>
        <path id="Path_246" data-name="Path 246" d="M349.764,206.723h.831l2.352,5.7,2.361-5.7h.8l-2.843,6.658h-.661Z" transform="translate(-212.657 -206.61)" fill="#030504"/>
        <path id="Path_247" data-name="Path 247" d="M370.848,206.723h4.779v.68h-4.032v2.257H375.2v.679h-3.607v2.314h4.079v.68h-4.826Z" transform="translate(-224.956 -206.61)" fill="#030504"/>
        <path id="Path_248" data-name="Path 248" d="M388.759,206.723H391.6a2.607,2.607,0,0,1,1.879.661,1.826,1.826,0,0,1,.51,1.3v.019a1.935,1.935,0,0,1-1.795,1.926l2.031,2.7h-.916l-1.917-2.569h-1.889v2.569h-.746Zm2.777,3.372c.992,0,1.7-.51,1.7-1.36v-.019c0-.812-.624-1.3-1.691-1.3h-2.04v2.682Z" transform="translate(-235.405 -206.61)" fill="#030504"/>
        <path id="Path_249" data-name="Path 249" d="M406.83,212.238l.462-.547a3.149,3.149,0,0,0,2.267.935c.887,0,1.474-.472,1.474-1.124v-.019c0-.614-.331-.963-1.719-1.256-1.52-.33-2.22-.822-2.22-1.908V208.3a1.953,1.953,0,0,1,2.173-1.8,3.449,3.449,0,0,1,2.323.813l-.434.576a2.9,2.9,0,0,0-1.908-.718c-.859,0-1.408.472-1.408,1.067v.019c0,.623.34.973,1.795,1.284,1.474.321,2.153.859,2.153,1.87v.019c0,1.133-.944,1.87-2.257,1.87A3.868,3.868,0,0,1,406.83,212.238Z" transform="translate(-245.948 -206.477)" fill="#030504"/>
        <path id="Path_250" data-name="Path 250" d="M425.24,206.723h.746v6.611h-.746Z" transform="translate(-256.688 -206.61)" fill="#030504"/>
        <path id="Path_251" data-name="Path 251" d="M435.4,207.413h-2.229v-.689h5.2v.689H436.15v5.922H435.4Z" transform="translate(-261.317 -206.61)" fill="#030504"/>
        <path id="Path_252" data-name="Path 252" d="M452.771,210.718l-2.749-3.995h.907l2.229,3.306,2.247-3.306h.869l-2.748,3.986v2.626h-.755Z" transform="translate(-271.145 -206.61)" fill="#030504"/>
      </g>
    </g>
  </g>
</svg>
