<svg id="Component_1_2" data-name="Component 1 – 2" xmlns="http://www.w3.org/2000/svg" width="29.999" height="36.658" viewBox="0 0 29.999 36.658">
  <path id="Path_217" data-name="Path 217" d="M37.64,42.186c-.04-.15-.091-.3-.142-.443a7.31,7.31,0,0,0-2.719-3.836A15.055,15.055,0,0,0,32.016,36.4l-.5-.207.226-.151a5.548,5.548,0,0,0,2.091-2.225,17.947,17.947,0,0,0,.656-1.672,2.923,2.923,0,0,1,.8-1.277,2.623,2.623,0,0,0,.2-.218,1.129,1.129,0,0,0-.092-.112,4.5,4.5,0,0,1-1.034-1.584,7.755,7.755,0,0,0-.441-.913,6.683,6.683,0,0,0-2.2-2.11,10.089,10.089,0,0,0-4.893-1.672,12.786,12.786,0,0,0-2.748.1,12.266,12.266,0,0,0-3.114.759.367.367,0,0,1-.481-.128,11.1,11.1,0,0,0-3.96-3.051,1.718,1.718,0,0,0-.354-.078l-.054.063a1.827,1.827,0,0,0,.171.361,16.106,16.106,0,0,1,1.892,2.956,11.717,11.717,0,0,1,.928,8.494,9.954,9.954,0,0,1-1.674,3.421c-.111.147-.044.237.043.353a10.851,10.851,0,0,1,1.994,4.1c.076.332.095.677.142,1.024a1.127,1.127,0,0,1-.138.008c-.119-.014-.238-.03-.357-.048a4.57,4.57,0,0,1-2.754-1.451,4.42,4.42,0,0,1-1.105-3.056c-.009-1.065.019-2.133.087-3.2a7.744,7.744,0,0,1,.54-2.473A2.959,2.959,0,0,1,17,30.879c.143-.086.06-.146-.02-.223A6.112,6.112,0,0,1,16.332,30a5.064,5.064,0,0,1-.829-1.888,20.25,20.25,0,0,1-.524-4.26,11.082,11.082,0,0,1,.816-4.784,5.577,5.577,0,0,1,2.318-2.781,1.087,1.087,0,0,0,.138-.126,1.758,1.758,0,0,0-.271-.058,7.18,7.18,0,0,0-2.1.2,4.512,4.512,0,0,0-2.129,1.164c-.18.183-.206.194-.394.025a4.632,4.632,0,0,0-1.392-.873,7.613,7.613,0,0,0-3.173-.364c-.016,0-.029.024-.063.054a1.545,1.545,0,0,0,.14.094,5.243,5.243,0,0,1,1.325,1.011,7.694,7.694,0,0,1,2,4.724,22.083,22.083,0,0,1,.039,3.641,15.006,15.006,0,0,1-.549,3.357,2.662,2.662,0,0,1-1.17,1.627.936.936,0,0,0-.121.11.707.707,0,0,0,.128.118,2.191,2.191,0,0,1,.791.836,6.331,6.331,0,0,1,.709,1.829,19.967,19.967,0,0,1,.452,5.388,9.265,9.265,0,0,1-.585,2.936,4.372,4.372,0,0,1-2.543,2.707,1.247,1.247,0,0,0-.125.066l0,.052a.987.987,0,0,0,.18.023c.317-.009.634-.024.952-.036A5.222,5.222,0,0,0,13.8,43.409c.116-.106.19-.1.325-.021a13,13,0,0,0,2.963,1.39c.725.205,1.47.341,2.2.515.062.015.158.092.156.138a7.416,7.416,0,0,1-.073,1.305A13.718,13.718,0,0,1,17.219,51.6c-.212.316-.441.622-.654.937a.626.626,0,0,0-.053.206c.079,0,.157,0,.235,0,.025,0,.05-.024.075-.037a11.371,11.371,0,0,0,3.06-2.176.62.62,0,0,1,.8-.142A22.316,22.316,0,0,0,25.5,51.645a11.454,11.454,0,0,0,3.253.069,13.327,13.327,0,0,0,4.16-1.309,9.941,9.941,0,0,0,3.009-2.238,7.886,7.886,0,0,0,1.622-3.017,2.233,2.233,0,0,1,.936-1.361l.246-.154c-.129-.1-.19-.145-.254-.188A2.07,2.07,0,0,1,37.64,42.186ZM22.171,27.475a9.306,9.306,0,0,1,3.89-.68,8.423,8.423,0,0,1,3.258.645,5.347,5.347,0,0,1,.728.386,1.451,1.451,0,0,1,.435,2.146,4.3,4.3,0,0,1-.679.653,1.6,1.6,0,0,1-.26.156,9.217,9.217,0,0,1,.856.428,1.518,1.518,0,0,1,.832,1.379,1.654,1.654,0,0,1-.715,1.221,7.647,7.647,0,0,1-3.751,1.6,14.012,14.012,0,0,1-4.012.013,1.067,1.067,0,0,1-.112-.027c.07-.505.152-1,.2-1.5a12.965,12.965,0,0,0-.54-5.332c-.085-.268-.168-.539-.265-.8C21.983,27.611,22.019,27.54,22.171,27.475ZM34.2,45.865a3.532,3.532,0,0,1-1.357,1.3,10.565,10.565,0,0,1-6.384,1.512,14.753,14.753,0,0,1-3.615-.765c-.258-.087-.521-.162-.745-.231.2-.666.4-1.305.59-1.945.022-.073.037-.15.054-.226.083-.378.082-.381.459-.387a7.57,7.57,0,0,1,2.806.3,6.881,6.881,0,0,1,1.032.483,2.612,2.612,0,0,1,1.069,1.172c.034.072.14.111.212.165A.809.809,0,0,0,28.4,47a6.845,6.845,0,0,0-.171-1.955,2.839,2.839,0,0,0-.668-1.21.283.283,0,0,1-.032-.415,5.107,5.107,0,0,0,.814-3.429.1.1,0,0,0,0-.042c-.038-.062-.077-.122-.116-.183a1.233,1.233,0,0,0-.115.178,5.011,5.011,0,0,1-.343.807,3.436,3.436,0,0,1-1.814,1.289,8.508,8.508,0,0,1-2.176.416c-.211.018-.423.03-.632.06-.116.016-.159-.005-.178-.131q-.2-1.35-.421-2.7c-.051-.317-.03-.356.277-.453a13.877,13.877,0,0,1,4.482-.676,11.211,11.211,0,0,1,5.258,1.355,2.867,2.867,0,0,1,1.533,1.977,1.043,1.043,0,0,1-.375,1.08,6.159,6.159,0,0,1-.635.417c-.057.037-.118.069-.218.125.093.04.146.067.2.085a2.146,2.146,0,0,1,1.029.714A1.4,1.4,0,0,1,34.2,45.865Z" transform="translate(-8.728 -16.091)" fill="#ecaa00"/>
</svg>
